<svg version="1.1" id="Layer_1" xmlns="http://www.w3.org/2000/svg" xmlns:xlink="http://www.w3.org/1999/xlink" x="0px" y="0px"
	 width="100%" viewBox="0 0 420 79" enable-background="new 0 0 420 79" xml:space="preserve">
<path fill="#131313" opacity="1.000000" stroke="none" 
	d="
M288.000000,80.000000 
	C193.333344,80.000000 99.166656,79.976128 5.000155,80.095673 
	C1.576073,80.100021 0.871757,79.428314 0.899015,75.999237 
	C1.089782,52.000751 1.043959,27.999842 0.934498,4.000342 
	C0.923092,1.499424 1.500824,0.936409 3.999988,0.937681 
	C141.999939,1.007883 279.999939,1.007879 417.999878,0.937706 
	C420.498688,0.936435 421.076813,1.498967 421.065521,4.000202 
	C420.956329,28.166374 420.932922,52.333660 421.085846,76.499359 
	C421.104736,79.484505 420.483398,80.092110 417.499847,80.083626 
	C374.500183,79.961403 331.500031,80.000000 288.000000,80.000000 
z"/>
<path fill="#FAFAFA" opacity="1.000000" stroke="none" 
	d="
M46.768784,6.649989 
	C48.251366,7.196142 49.478798,7.533357 51.184059,7.884674 
	C53.975056,6.249135 55.061924,8.338201 56.728310,9.743224 
	C57.115017,10.283399 57.300549,10.496574 57.761684,10.695127 
	C60.073277,10.146510 61.134125,12.179054 63.121605,12.793564 
	C63.625477,13.045376 63.819321,13.160576 64.276535,13.486418 
	C66.618248,16.245741 68.621521,18.870750 71.752548,20.817120 
	C72.224777,21.520924 72.476768,21.980446 72.785652,22.697701 
	C72.902428,23.866354 72.547630,24.739481 72.672531,25.951855 
	C72.879883,26.834995 72.969864,27.421844 72.974808,28.293980 
	C72.904747,28.751600 72.865685,28.931837 72.609909,29.284029 
	C74.147316,34.309196 72.690575,39.471199 74.040680,44.719757 
	C72.966560,47.624165 72.489647,50.477489 71.265152,53.415836 
	C70.489853,54.608658 69.785385,55.448589 68.923874,56.571205 
	C68.486198,56.881516 68.289268,56.971142 67.817162,56.888718 
	C64.829460,56.930347 62.296780,58.702370 59.367683,57.119633 
	C55.037571,54.779861 53.888401,50.523849 56.591820,45.700237 
	C62.385448,35.362881 59.785679,22.458338 50.441650,15.288667 
	C49.979954,14.934409 49.367477,14.776666 48.786297,14.509531 
	C47.662071,16.595346 49.466434,17.083143 50.219433,17.884846 
	C53.837803,21.737263 56.541729,26.041079 57.219006,31.376192 
	C57.813492,36.059166 55.594246,39.520111 51.600029,39.854542 
	C47.173527,40.225170 44.938618,37.715965 44.070312,33.557865 
	C42.522247,26.144529 38.714035,20.741512 30.413723,19.207348 
	C29.503870,19.581955 28.943190,19.905582 28.263565,19.934061 
	C28.653566,20.161814 29.122709,20.196917 29.775227,20.620800 
	C33.341225,21.480806 36.043480,23.031256 36.943493,26.470009 
	C37.735588,29.496431 36.661167,32.085064 34.089626,33.887306 
	C31.673674,35.580505 28.955301,35.798679 26.645126,33.979012 
	C22.360939,30.604458 18.255060,29.221439 13.867056,33.677021 
	C13.385206,34.166286 12.511370,34.188068 12.331028,33.493259 
	C12.202778,32.999153 12.782587,32.321259 13.059774,31.369822 
	C12.854257,29.566780 13.495271,28.316980 14.074711,26.702429 
	C14.265199,26.173286 14.369298,25.974884 14.683375,25.520897 
	C15.211568,24.236691 17.502674,24.697592 16.441925,22.732317 
	C16.002954,22.480343 15.845950,22.336792 15.544950,21.895372 
	C15.311367,21.147951 15.312305,20.697384 15.504309,19.914675 
	C17.655146,15.863643 20.958698,13.783225 25.141335,12.310781 
	C25.852612,12.038195 26.259714,11.904631 26.956335,11.690224 
	C28.062521,11.355204 28.489378,10.778766 28.706306,9.669071 
	C28.860563,9.190312 28.941572,9.003798 29.159893,8.541865 
	C29.395193,8.085014 29.493181,7.903584 29.834072,7.530668 
	C35.055183,6.346032 40.080753,7.328168 45.530499,6.908593 
	C46.162266,6.705411 46.337948,6.573231 46.768784,6.649989 
z"/>
<path fill="#F2F2F2" opacity="1.000000" stroke="none" 
	d="
M339.549683,34.782341 
	C340.911224,43.291733 337.929749,49.655323 331.043854,53.816120 
	C324.638092,57.686794 317.996521,57.244133 311.874268,52.872437 
	C305.499664,48.320580 303.034943,40.381207 305.422058,32.941605 
	C307.767151,25.633083 314.622650,20.762772 322.464478,20.834364 
	C330.495819,20.907686 336.604950,25.794912 339.549683,34.782341 
z"/>
<path fill="#F6F6F6" opacity="1.000000" stroke="none" 
	d="
M178.995270,29.926132 
	C178.666870,32.983303 177.230896,34.921085 174.774017,36.508728 
	C175.997894,37.432739 177.209900,38.185585 178.228531,39.143955 
	C183.602539,44.200047 181.557037,52.947773 174.523697,55.104538 
	C169.309845,56.703354 163.948563,55.791225 158.653656,55.995979 
	C156.440475,56.081566 157.008118,54.351673 157.003983,53.159248 
	C156.970581,43.511772 157.049606,33.863400 156.939621,24.217064 
	C156.912613,21.847401 157.613571,20.942667 160.038818,21.108459 
	C163.680527,21.357409 167.367447,21.110897 170.983719,21.524525 
	C175.606125,22.053228 178.617203,24.578213 178.995270,29.926132 
z"/>
<path fill="#F0F0F0" opacity="1.000000" stroke="none" 
	d="
M110.402969,21.278805 
	C118.345604,23.010082 121.594490,26.918083 121.071075,33.649273 
	C120.606339,39.625683 116.782387,42.825935 109.352089,43.456867 
	C101.912941,44.088558 101.992348,44.090748 101.783318,51.673542 
	C101.739372,53.267845 103.230057,56.076717 99.613953,56.014759 
	C96.357056,55.958958 97.714264,53.407684 97.693474,51.948738 
	C97.567665,43.118637 97.796707,34.281193 97.549278,25.456240 
	C97.450851,21.945444 98.465790,20.675795 101.983192,21.074347 
	C104.618286,21.372929 107.307793,21.191393 110.402969,21.278805 
z"/>
<path fill="#F1F1F1" opacity="1.000000" stroke="none" 
	d="
M403.526459,36.487640 
	C405.866547,38.462353 406.216492,39.951202 402.823486,40.184025 
	C401.496582,40.275082 400.117157,40.413918 398.832520,40.165085 
	C393.542664,39.140427 392.587341,41.565399 392.657806,46.387360 
	C392.721863,50.764378 393.594635,52.743889 398.303131,52.039146 
	C400.747833,51.673237 403.294586,51.913326 405.791168,51.998291 
	C407.262115,52.048355 409.291382,51.209286 409.203613,54.126678 
	C409.126740,56.681599 407.360687,55.983994 406.041077,56.000698 
	C401.209503,56.061844 396.374847,55.947239 391.545197,56.061352 
	C389.505066,56.109554 388.555939,55.677746 388.582275,53.350922 
	C388.693665,43.520855 388.675293,33.688480 388.599182,23.857761 
	C388.581879,21.623436 389.485565,21.040031 391.578033,21.093201 
	C396.407257,21.215914 401.241760,21.125906 406.074097,21.136093 
	C407.405334,21.138899 408.767517,20.996096 408.890106,23.007425 
	C409.046722,25.577082 407.209778,24.949636 405.854553,25.005898 
	C404.024750,25.081860 402.189423,25.025234 400.356476,25.025255 
	C392.603088,25.025341 391.320312,26.759922 392.779755,34.566166 
	C393.148956,36.541023 394.230621,36.436970 395.565826,36.441856 
	C398.065308,36.451012 400.564789,36.452011 403.526459,36.487640 
z"/>
<path fill="#F8F8F8" opacity="1.000000" stroke="none" 
	d="
M151.055756,25.255564 
	C151.045883,31.709408 151.163101,37.696632 150.994324,43.675781 
	C150.776337,51.399223 145.246338,56.939522 138.225174,56.740311 
	C131.208038,56.541214 126.169472,51.282417 125.990242,43.678829 
	C125.837524,37.199932 125.922394,30.714794 125.955383,24.232687 
	C125.962357,22.861811 125.448288,21.161903 127.931473,21.116152 
	C130.406937,21.070539 129.993118,22.718153 129.999649,24.135817 
	C130.027924,30.285660 129.950653,36.436558 130.033722,42.585423 
	C130.122192,49.133804 133.236542,52.797855 138.494980,52.759003 
	C143.739639,52.720249 146.858917,49.029675 146.951904,42.529221 
	C147.037491,36.546673 146.931244,30.561470 147.003662,24.578577 
	C147.021240,23.125500 146.213364,21.015713 149.118088,21.136921 
	C152.001190,21.257227 150.729630,23.406088 151.055756,25.255564 
z"/>
<path fill="#F0F0F0" opacity="1.000000" stroke="none" 
	d="
M225.762604,44.893402 
	C231.341034,52.557575 236.358749,54.109734 244.378693,50.533989 
	C246.239136,49.704494 247.611191,49.457703 248.477234,51.319199 
	C249.463455,53.439022 247.194611,53.663879 246.123718,54.303410 
	C239.101425,58.497051 229.399689,56.352482 223.770401,49.478321 
	C218.533875,43.083771 218.692413,33.118729 224.128311,26.984634 
	C229.784073,20.602457 240.179916,18.814116 246.805588,23.152082 
	C247.625107,23.688637 249.314835,23.975971 248.384567,25.644909 
	C247.552353,27.137928 246.509216,27.657555 244.729935,26.706570 
	C238.970444,23.628244 233.458359,24.263039 228.641769,28.643328 
	C223.739410,33.101627 223.115372,38.584503 225.762604,44.893402 
z"/>
<path fill="#F3F3F3" opacity="1.000000" stroke="none" 
	d="
M367.044464,21.650963 
	C372.300079,20.204155 376.987305,20.654854 381.390045,23.136230 
	C382.271637,23.633078 383.756226,24.175869 382.853668,25.736406 
	C382.128967,26.989515 381.145050,27.756674 379.596436,26.797169 
	C377.881561,25.734659 376.024933,25.110102 373.978119,24.958363 
	C367.999298,24.515127 362.534027,27.518322 360.083954,32.682308 
	C357.740936,37.620560 358.751007,43.909893 362.539825,47.974625 
	C366.659241,52.394012 372.186829,53.502781 378.013245,51.062065 
	C378.622589,50.806801 379.217834,50.501534 379.781769,50.157406 
	C381.338440,49.207516 382.293060,50.058094 382.999512,51.297878 
	C383.906708,52.889965 382.356293,53.369564 381.505219,53.893402 
	C375.736633,57.444065 369.769470,57.203941 363.986755,54.121998 
	C357.553772,50.693470 354.335815,45.089500 354.652557,37.797619 
	C354.998383,29.837448 359.138214,24.489555 367.044464,21.650963 
z"/>
<path fill="#EFEFEF" opacity="1.000000" stroke="none" 
	d="
M281.323700,53.823551 
	C276.462738,42.889465 271.788757,32.297379 267.098022,21.667309 
	C270.387634,20.131872 271.660461,21.847780 272.766479,24.443083 
	C276.312012,32.762714 279.996765,41.023014 284.064880,50.303272 
	C288.204895,40.950169 292.005157,32.614040 295.564117,24.176119 
	C296.668488,21.557806 297.995880,20.369736 301.094482,21.643995 
	C296.250824,32.546844 291.522003,43.460430 286.527527,54.251053 
	C285.217377,57.081589 283.140198,57.046932 281.323700,53.823551 
z"/>
<path fill="#FCFCFC" opacity="1.000000" stroke="none" 
	d="
M204.426025,55.934044 
	C198.983246,55.995491 193.987686,55.879211 189.002258,56.053310 
	C186.606293,56.136982 185.897476,55.402885 185.930573,52.995968 
	C186.060898,43.514084 185.961441,34.029240 186.007309,24.545784 
	C186.014511,23.060930 185.295914,20.979521 188.173080,21.153641 
	C191.053574,21.327967 189.977493,23.497005 189.996277,24.865356 
	C190.099014,32.351063 190.322723,39.853275 189.936111,47.320366 
	C189.721695,51.461700 191.209763,52.438915 194.922791,52.051380 
	C197.556152,51.776539 200.241730,52.025410 202.903381,51.991997 
	C206.237442,51.950150 206.518234,53.412910 204.426025,55.934044 
z"/>
<path fill="#ECECEC" opacity="1.000000" stroke="none" 
	d="
M210.610779,30.101112 
	C210.615417,27.455921 210.633179,25.293789 210.619400,23.131861 
	C210.610184,21.683384 211.256714,21.074554 212.740097,21.102098 
	C214.208191,21.129358 214.844788,21.741331 214.843155,23.189619 
	C214.831528,33.501217 214.824646,43.812878 214.852783,54.124416 
	C214.857086,55.702244 214.027695,55.995747 212.672089,56.060146 
	C210.717133,56.153023 210.593750,55.007156 210.598663,53.535984 
	C210.624115,45.885479 210.610474,38.234848 210.610779,30.101112 
z"/>
<path fill="#F2F2F2" opacity="1.000000" stroke="none" 
	d="
M345.093689,30.075829 
	C345.095215,27.597013 345.128174,25.606163 345.087799,23.616800 
	C345.056641,22.080805 345.415710,21.095064 347.274933,21.114340 
	C348.873932,21.130919 349.237915,21.970615 349.238159,23.282406 
	C349.240204,33.565163 349.227020,43.847961 349.258820,54.130623 
	C349.263672,55.703125 348.498962,56.024166 347.101959,56.045170 
	C345.134277,56.074757 345.080170,54.888832 345.084198,53.451908 
	C345.105591,45.822796 345.093842,38.193600 345.093689,30.075829 
z"/>
<path fill="#2E2E2E" opacity="1.000000" stroke="none" 
	d="
M25.961264,12.405543 
	C22.950260,15.168347 19.145569,16.480627 16.646885,19.945768 
	C15.170612,20.529924 14.982142,21.517708 14.945231,22.921047 
	C14.802312,23.878729 14.568147,24.462883 13.790086,25.025875 
	C10.473140,24.216259 11.463675,21.592182 12.260059,20.353640 
	C14.805686,16.394659 16.790993,11.751302 22.119579,10.003315 
	C22.652641,9.949507 22.852573,9.886559 23.335865,9.685472 
	C24.030115,9.653876 24.426088,9.801194 25.067558,10.174949 
	C25.773542,10.861565 26.032364,11.438347 25.961264,12.405543 
z"/>
<path fill="#2E2E2E" opacity="1.000000" stroke="none" 
	d="
M63.061115,14.002607 
	C61.444382,13.241572 59.948711,12.230709 58.212471,10.978628 
	C57.971905,9.770467 57.971905,8.803522 57.971905,7.672900 
	C64.036446,10.703405 68.939003,14.464783 71.916824,20.715187 
	C68.103615,20.885107 66.122787,18.004475 63.768017,15.164812 
	C63.614212,14.456330 64.158859,13.815408 63.061115,14.002607 
z"/>
<path fill="#4F4F4F" opacity="1.000000" stroke="none" 
	d="
M69.867760,53.752510 
	C70.786896,50.533745 71.210785,47.475216 73.902840,45.160233 
	C76.690689,51.758846 71.285439,55.291515 68.349220,60.287052 
	C68.111130,58.989948 67.961426,58.174400 67.676857,57.037754 
	C67.541985,56.716660 67.654770,56.725529 67.692284,56.767860 
	C68.981888,56.333973 69.262550,55.123482 69.867760,53.752510 
z"/>
<path fill="#222222" opacity="1.000000" stroke="none" 
	d="
M56.996124,9.681444 
	C55.360573,9.407196 53.726273,8.801076 51.876930,8.046866 
	C51.496506,6.939557 50.550079,4.953116 51.604813,5.238566 
	C53.696674,5.804701 57.601101,4.971824 56.996124,9.681444 
z"/>
<path fill="#BBBBBB" opacity="1.000000" stroke="none" 
	d="
M37.490974,71.919014 
	C35.163570,71.301071 31.707159,72.796860 30.187386,69.038345 
	C30.372723,68.681572 30.160070,69.038635 30.229626,68.842827 
	C32.237823,70.487770 35.691338,68.859138 37.490974,71.919014 
z"/>
<path fill="#222222" opacity="1.000000" stroke="none" 
	d="
M47.241814,6.645635 
	C46.850178,6.897293 46.676422,6.935659 46.244625,6.905808 
	C46.016464,4.762918 43.360886,5.026863 42.846672,3.262823 
	C44.887882,2.702555 46.810413,2.640347 48.468098,4.000449 
	C50.630688,5.774817 48.458817,5.891345 47.241814,6.645635 
z"/>
<path fill="#3C3C3C" opacity="1.000000" stroke="none" 
	d="
M30.059872,20.534000 
	C27.946735,20.968378 25.839228,21.287725 23.282957,20.490747 
	C25.166403,18.284897 27.352468,19.165264 29.647114,19.090689 
	C30.056156,19.566961 30.065117,19.918661 30.059872,20.534000 
z"/>
<path fill="#3C3C3C" opacity="1.000000" stroke="none" 
	d="
M14.716379,25.831532 
	C16.440996,28.037056 13.674052,28.860838 13.349916,30.767189 
	C11.720531,30.037142 11.581745,28.806822 12.608410,27.207279 
	C13.355787,26.541779 13.718016,25.952944 14.716379,25.831532 
z"/>
<path fill="#2E2E2E" opacity="1.000000" stroke="none" 
	d="
M72.148300,27.239693 
	C70.381210,25.752623 71.144722,24.489689 72.550720,23.109245 
	C73.812691,23.371243 73.974327,24.259155 74.068642,25.772009 
	C73.590973,26.856951 73.066635,27.130445 72.148300,27.239693 
z"/>
<path fill="#222222" opacity="1.000000" stroke="none" 
	d="
M37.428837,3.123210 
	C38.502583,3.113959 39.530193,2.900759 39.483952,4.086661 
	C39.453732,4.861566 38.673058,4.999859 38.033291,4.932442 
	C36.957321,4.819060 36.028214,4.529955 37.428837,3.123210 
z"/>
<path fill="#F8F8F8" opacity="1.000000" stroke="none" 
	d="
M15.011524,25.949930 
	C14.212801,25.830460 13.937936,26.485512 13.230436,27.010939 
	C13.023391,26.596546 13.147939,26.172506 13.377937,25.434034 
	C13.753086,24.661911 14.022785,24.204220 14.334452,23.474970 
	C14.388872,22.665085 14.610021,22.233751 15.417046,21.862181 
	C15.971993,21.987318 16.149719,22.159662 16.592861,22.591724 
	C16.902937,24.037369 16.164227,24.808672 15.194876,25.801777 
	C14.973139,26.028288 14.986712,25.968189 15.011524,25.949930 
z"/>
<path fill="#222222" opacity="1.000000" stroke="none" 
	d="
M25.083059,11.121136 
	C24.613764,10.884130 24.422268,10.772474 24.139820,10.496092 
	C23.905386,9.911780 24.048927,9.570739 24.737370,9.157698 
	C24.976961,8.940899 24.999928,8.997188 24.974960,8.979857 
	C25.714994,8.477215 26.495132,8.021490 27.671810,7.863295 
	C28.173481,7.992438 28.362701,7.988456 28.981892,8.229303 
	C29.376085,8.673246 29.340303,8.872362 29.171749,9.345940 
	C28.681343,10.132728 28.207247,10.515771 27.409328,10.984302 
	C26.551867,11.357372 25.950037,11.398826 25.083059,11.121136 
z"/>
<path fill="#2E2E2E" opacity="1.000000" stroke="none" 
	d="
M74.990067,28.676146 
	C74.302216,29.185131 73.752937,29.232906 72.798431,29.368332 
	C72.393211,29.455982 72.419518,29.409094 72.443756,29.397469 
	C72.722008,28.486113 72.292809,27.424080 73.406845,26.445080 
	C73.698029,26.230680 73.957275,26.028509 74.087875,25.925903 
	C75.021629,26.430323 75.102753,27.312119 74.990067,28.676146 
z"/>
<path fill="#BBBBBB" opacity="1.000000" stroke="none" 
	d="
M27.960453,7.620855 
	C27.186361,8.386230 26.388462,8.776042 25.270275,9.064190 
	C25.306086,7.277962 26.224653,6.571661 27.960453,7.620855 
z"/>
<path fill="#BBBBBB" opacity="1.000000" stroke="none" 
	d="
M37.701874,72.146423 
	C38.107624,72.265213 38.540405,72.370140 38.973190,72.475060 
	C38.729710,72.304810 38.486229,72.134567 38.007866,72.069122 
	C37.772984,72.173920 37.728905,72.132553 37.701874,72.146423 
z"/>
<path fill="#4F4F4F" opacity="1.000000" stroke="none" 
	d="
M30.055637,7.076076 
	C30.076973,7.339183 30.188906,7.727555 30.054964,7.878883 
	C29.758369,8.196805 29.595715,8.363400 29.226482,8.248396 
	C29.019901,7.966798 29.075981,7.993330 29.097179,7.969518 
	C29.183849,7.285138 28.819574,6.514377 29.607290,6.039005 
	C29.749628,6.296993 29.891966,6.554981 30.055637,7.076076 
z"/>
<path fill="#BBBBBB" opacity="1.000000" stroke="none" 
	d="
M27.763212,68.612152 
	C27.753899,68.289017 27.716267,68.139290 27.678635,67.989563 
	C27.542303,68.159790 27.405968,68.330009 27.269632,68.500229 
	C27.424717,68.595345 27.579805,68.690453 27.763212,68.612152 
z"/>
<path fill="#BBBBBB" opacity="1.000000" stroke="none" 
	d="
M24.646088,8.662447 
	C24.829521,9.293609 24.682081,9.646318 24.278603,10.187752 
	C23.751408,10.357352 23.480247,10.338227 22.830898,10.165779 
	C22.672205,9.010614 23.606808,8.826657 24.646088,8.662447 
z"/>
<path fill="#4F4F4F" opacity="1.000000" stroke="none" 
	d="
M66.393555,62.202309 
	C66.990395,61.580753 66.647423,62.022194 66.393555,62.202309 
z"/>
<path fill="#2E2E2E" opacity="1.000000" stroke="none" 
	d="
M75.072739,28.945650 
	C75.617981,29.313334 76.276192,29.706036 75.449234,30.394976 
	C75.281784,30.135588 75.114334,29.876202 74.899185,29.377087 
	C74.851494,29.137356 74.997787,29.008154 75.072739,28.945650 
z"/>
<path fill="#161616" opacity="1.000000" stroke="none" 
	d="
M76.473862,41.454163 
	C76.522095,41.426048 76.425629,41.482277 76.473862,41.454163 
z"/>
<path fill="#161616" opacity="1.000000" stroke="none" 
	d="
M76.457878,34.531048 
	C76.430870,34.482265 76.484886,34.579830 76.457878,34.531048 
z"/>
<path fill="#BBBBBB" opacity="1.000000" stroke="none" 
	d="
M30.340721,68.703072 
	C30.372723,68.681572 30.130480,68.755585 30.130480,68.755585 
	C30.130480,68.755585 30.191772,68.856522 30.245476,68.751770 
	C30.299179,68.647018 30.308722,68.724571 30.340721,68.703072 
z"/>
<path fill="#131313" opacity="1.000000" stroke="none" 
	d="
M37.831757,10.450872 
	C41.906685,10.939796 45.885300,11.361825 48.338226,15.055958 
	C44.987965,14.495699 42.177525,12.395549 38.434555,11.920103 
	C37.678116,11.546878 37.534050,11.157149 37.831757,10.450872 
z"/>
<path fill="#3C3C3C" opacity="1.000000" stroke="none" 
	d="
M15.236902,26.350319 
	C14.691634,24.669231 15.908638,24.220835 16.706562,23.138500 
	C18.025721,22.065088 19.105679,19.675037 20.591013,21.636309 
	C21.609112,22.980629 19.187828,23.292814 18.416735,24.156063 
	C17.568636,25.105522 16.482882,25.842693 15.236902,26.350319 
z"/>
<path fill="#4F4F4F" opacity="1.000000" stroke="none" 
	d="
M37.657009,10.092123 
	C38.062233,10.576839 38.052269,10.938304 38.049469,11.570997 
	C35.822441,11.785783 33.482391,12.361116 31.436806,9.968872 
	C33.371811,9.968872 35.306820,9.968872 37.657009,10.092123 
z"/>
<path fill="#F8F8F8" opacity="1.000000" stroke="none" 
	d="
M27.016243,10.417322 
	C27.674078,9.921981 28.182711,9.723807 28.842264,9.293701 
	C29.133821,8.893906 29.274460,8.726043 29.691364,8.735890 
	C29.843872,10.317845 30.526056,11.980423 28.351288,12.919764 
	C27.358465,12.364978 26.740992,11.723232 27.016243,10.417322 
z"/>
<path fill="#131313" opacity="1.000000" stroke="none" 
	d="
M15.851616,21.518026 
	C15.459981,22.175880 15.125697,22.536787 14.583918,23.050554 
	C12.805917,21.314079 14.150888,20.674486 16.031109,20.111263 
	C16.212757,20.474474 16.060862,20.847776 15.851616,21.518026 
z"/>
<path fill="#696969" opacity="1.000000" stroke="none" 
	d="
M26.852665,10.144775 
	C27.516953,10.872391 27.868460,11.624627 28.107014,12.687322 
	C27.513012,12.769271 27.031963,12.540762 26.195377,12.508712 
	C25.492449,12.300202 25.145061,11.895232 24.814617,11.220469 
	C25.401005,10.690248 25.970446,10.429823 26.852665,10.144775 
z"/>
<path fill="#131313" opacity="1.000000" stroke="none" 
	d="
M69.627930,53.582134 
	C69.766624,54.668015 70.510216,56.304520 68.141708,56.824604 
	C67.272903,55.286144 69.117264,54.946541 69.627930,53.582134 
z"/>
<path fill="#131313" opacity="1.000000" stroke="none" 
	d="
M73.417458,26.228676 
	C73.382477,27.068754 73.066925,27.906828 72.609680,29.065372 
	C72.266014,28.863733 72.064034,28.341625 71.854263,27.532917 
	C72.276604,26.906433 72.706749,26.566551 73.417458,26.228676 
z"/>
<path fill="#131313" opacity="1.000000" stroke="none" 
	d="
M63.045460,14.478704 
	C63.138069,13.877351 63.336090,13.502266 63.534111,13.127182 
	C63.629025,13.513109 63.723938,13.899035 63.716675,14.587535 
	C63.614506,14.890108 63.150871,14.704973 63.045460,14.478704 
z"/>
<path fill="#131313" opacity="1.000000" stroke="none" 
	d="
M29.977356,8.691627 
	C29.967628,8.913602 29.491615,9.060647 29.242401,9.061207 
	C28.994537,8.879740 28.995892,8.697712 29.008572,8.241241 
	C29.019901,7.966798 29.471760,7.989695 29.696392,8.009953 
	C29.921022,8.030210 29.987082,8.469651 29.977356,8.691627 
z"/>
<path fill="#151515" opacity="1.000000" stroke="none" 
	d="
M331.422119,48.454613 
	C324.832703,53.619591 318.376495,53.614540 313.225372,48.708248 
	C308.302490,44.019341 307.371552,36.498074 311.034790,31.009863 
	C314.761139,25.427101 321.644012,23.391756 327.650421,26.096426 
	C336.274933,29.980038 338.127167,40.107872 331.422119,48.454613 
z"/>
<path fill="#161616" opacity="1.000000" stroke="none" 
	d="
M170.511200,52.122887 
	C160.510483,52.167183 159.452835,50.849728 161.083145,41.044601 
	C161.216644,40.241703 161.134735,39.501751 162.122772,39.071697 
	C164.405365,38.078163 173.286514,39.428333 175.100464,41.147503 
	C179.137817,44.973911 177.173935,50.163765 170.511200,52.122887 
z"/>
<path fill="#1C1C1C" opacity="1.000000" stroke="none" 
	d="
M162.430267,35.415482 
	C159.992279,32.482952 161.542053,29.276587 161.143417,26.257345 
	C161.108871,25.995768 161.318832,25.625019 161.527954,25.419930 
	C163.869858,23.123194 173.848450,25.563440 174.713242,28.738512 
	C175.628799,32.100010 174.034363,34.368931 170.791687,35.015842 
	C168.218597,35.529171 165.508362,35.354969 162.430267,35.415482 
z"/>
<path fill="#161616" opacity="1.000000" stroke="none" 
	d="
M112.668564,39.006355 
	C108.901642,40.074245 103.658981,41.189507 102.577599,38.967319 
	C100.873383,35.465225 101.952591,30.599291 101.916801,26.310177 
	C101.913490,25.913527 102.270050,25.366009 102.621391,25.138241 
	C104.916397,23.650436 113.930550,25.597996 115.614304,27.896940 
	C118.226471,31.463512 117.228058,35.778397 112.668564,39.006355 
z"/>
</svg>