<svg version="1.1" id="Layer_1" xmlns="http://www.w3.org/2000/svg" xmlns:xlink="http://www.w3.org/1999/xlink" x="0px" y="0px"
	 width="100%" viewBox="0 0 434 82" enable-background="new 0 0 434 82" xml:space="preserve">
<path fill="#FDFDFD" opacity="1.000000" stroke="none" 
	d="
M323.000000,83.000000 
	C216.666672,83.000000 110.833336,82.978737 5.000143,83.095421 
	C1.576188,83.099205 0.873558,82.428040 0.899233,78.999283 
	C1.086428,54.000690 1.042275,28.999863 0.934628,4.000329 
	C0.923860,1.499543 1.500817,0.936481 3.999982,0.937706 
	C146.666611,1.007626 289.333252,1.007622 431.999878,0.937732 
	C434.498688,0.936508 435.076050,1.499058 435.065399,4.000179 
	C434.957977,29.166386 434.935455,54.333614 435.085663,79.499382 
	C435.103485,82.484253 434.483887,83.095047 431.499817,83.084259 
	C395.500244,82.954147 359.500031,83.000000 323.000000,83.000000 
z"/>
<path fill="#171717" opacity="1.000000" stroke="none" 
	d="
M48.726120,13.392308 
	C51.710865,13.012604 54.389538,13.055025 57.517994,13.509258 
	C60.114922,12.269627 62.042793,13.548252 64.378616,14.129837 
	C65.154953,14.361591 65.582024,14.538842 66.311348,14.883795 
	C69.000534,16.349827 71.673851,17.218538 73.551247,19.803713 
	C74.147362,20.639183 74.629402,21.150763 75.431641,21.815914 
	C78.316002,22.336910 79.227432,24.629597 80.889977,26.499779 
	C81.205444,27.131813 81.209541,27.494551 81.195702,28.021194 
	C81.545311,28.304905 81.690804,28.411816 81.990341,28.741478 
	C82.080040,29.130133 82.015701,29.296034 82.004059,29.723591 
	C84.039902,31.840862 84.648842,34.325947 85.262039,37.217148 
	C85.419189,38.361610 85.637009,39.100353 85.919006,40.224918 
	C86.429970,42.679588 86.341866,44.783218 86.354828,47.271591 
	C86.298615,49.742310 85.547333,51.685482 85.068420,54.065083 
	C83.807854,56.578678 83.198074,59.026482 81.146950,61.035767 
	C77.563362,64.770096 73.787476,65.641502 69.724350,62.831417 
	C66.216553,60.405399 66.047783,56.765209 68.804581,51.756790 
	C74.039696,42.245876 71.720238,30.796291 62.646217,22.780672 
	C61.899563,22.697876 61.477821,22.658215 60.806252,22.388773 
	C60.394016,22.182150 60.247746,22.079134 59.904217,21.827240 
	C59.706963,21.678364 59.468891,21.351549 59.607162,21.521870 
	C59.867729,21.806330 59.990021,21.920469 60.336502,22.185474 
	C60.901543,22.517731 61.191265,22.761681 61.279274,23.311363 
	C64.706520,27.158459 67.443222,31.276619 68.735062,36.233158 
	C70.095505,41.452885 68.017189,45.635372 63.709427,46.536072 
	C59.802719,47.352917 57.345261,44.986202 55.859673,39.562126 
	C53.998055,32.765106 50.536266,27.353386 42.423691,26.260586 
	C40.366722,27.559526 38.186192,26.886904 36.091881,27.864670 
	C35.613304,28.142653 35.414848,28.243187 34.897160,28.442711 
	C31.117527,28.250151 29.715145,32.213692 26.241549,32.244808 
	C26.038834,31.596409 26.102188,31.148186 26.244873,30.369804 
	C25.794455,28.019020 27.429863,26.785519 28.237934,24.894978 
	C28.715237,23.992874 29.098433,23.432121 29.813219,22.700077 
	C32.989979,21.331911 35.776588,19.976671 38.152832,17.367416 
	C38.675777,16.827660 39.027683,16.603603 39.729332,16.446930 
	C40.434639,16.438438 40.590912,16.925348 40.987724,16.946913 
	C41.093605,16.952667 41.145184,16.832634 41.134613,16.731205 
	C41.065506,16.068130 41.357719,16.817602 40.600407,16.436169 
	C40.707161,14.445666 42.270893,14.722151 43.623482,14.131950 
	C45.396439,13.606626 46.807999,12.844566 48.726120,13.392308 
z"/>
<path fill="#2A2A2A" opacity="1.000000" stroke="none" 
	d="
M181.492584,28.016729 
	C185.709106,28.736385 189.064835,30.030682 190.080032,34.276962 
	C191.036850,38.279129 189.683456,41.393639 186.075333,43.478828 
	C187.537674,44.580620 189.014587,45.426575 190.155655,46.599312 
	C195.100067,51.680874 192.669357,59.887592 185.581879,62.005539 
	C180.703156,63.463440 175.652924,62.750961 170.672028,62.909134 
	C168.436203,62.980137 168.385422,61.528488 168.386551,59.934914 
	C168.393402,50.270988 168.463196,40.606098 168.338776,30.943762 
	C168.306458,28.434996 169.263916,27.798235 171.559830,27.914164 
	C174.717941,28.073626 177.889114,27.974281 181.492584,28.016729 
z"/>
<path fill="#1F1F1F" opacity="1.000000" stroke="none" 
	d="
M322.968079,30.844730 
	C329.800293,26.494711 336.446198,26.272770 342.893921,30.558201 
	C348.942261,34.578156 351.691925,40.477924 350.704163,47.689255 
	C349.693115,55.070301 345.428436,60.086605 338.310791,62.448177 
	C330.585724,65.011284 321.925720,61.487278 317.827789,54.250324 
	C313.460052,46.536858 315.339661,37.503895 322.968079,30.844730 
z"/>
<path fill="#313131" opacity="1.000000" stroke="none" 
	d="
M162.568329,51.391548 
	C161.034988,59.952305 156.422318,63.948116 149.065704,63.462471 
	C142.024887,62.997673 137.862411,58.574368 137.458633,50.441093 
	C137.137054,43.963802 137.348663,37.459869 137.331985,30.967747 
	C137.328171,29.478043 137.085205,27.956635 139.441406,27.901768 
	C142.162094,27.838413 141.744034,29.651617 141.748886,31.266769 
	C141.767883,37.593040 141.662186,43.921646 141.800995,50.245037 
	C141.934265,56.315964 144.795441,59.359684 149.999390,59.348377 
	C155.192841,59.337093 158.077042,56.319675 158.259155,50.245705 
	C158.438721,44.257530 158.228867,38.258007 158.386398,32.268631 
	C158.429413,30.633434 157.064056,27.822790 160.639938,27.962622 
	C164.147476,28.099781 162.625351,30.880075 162.663742,32.484634 
	C162.810989,38.639004 162.669601,44.800270 162.568329,51.391548 
z"/>
<path fill="#232323" opacity="1.000000" stroke="none" 
	d="
M406.055298,32.036057 
	C401.155823,34.410999 404.027496,38.395538 403.687531,41.563076 
	C403.376343,44.462242 406.306610,43.201023 407.879211,43.373180 
	C409.689789,43.571388 411.538422,43.433105 413.370422,43.420876 
	C414.796844,43.411350 416.034973,43.502476 415.992920,45.474442 
	C415.946411,47.655109 414.376831,47.110977 413.154114,47.202858 
	C412.491608,47.252651 411.822357,47.211071 411.156128,47.213486 
	C402.932587,47.243290 402.401154,47.960075 403.452698,56.325245 
	C403.702118,58.309158 404.492676,58.845943 406.301147,58.806366 
	C409.797058,58.729851 413.297150,58.733562 416.792908,58.815063 
	C418.109741,58.845764 419.937622,58.129169 420.006531,60.664814 
	C420.069214,62.969326 418.630310,62.896759 417.053558,62.890186 
	C412.057037,62.869354 407.058685,62.806667 402.064484,62.916515 
	C399.865936,62.964870 399.176575,62.099991 399.191864,59.980732 
	C399.262695,50.154560 399.238251,40.327557 399.209625,30.500963 
	C399.205170,28.976204 399.452148,27.934799 401.338043,27.954578 
	C406.667145,28.010466 411.997345,27.991026 417.326843,27.957172 
	C418.703064,27.948431 419.465942,28.306524 419.522095,29.890749 
	C419.589569,31.796391 418.576599,32.067223 417.042480,32.047161 
	C413.545471,32.001434 410.047394,32.033581 406.055298,32.036057 
z"/>
<path fill="#222222" opacity="1.000000" stroke="none" 
	d="
M113.342484,58.603935 
	C113.060333,60.608047 114.291115,63.050114 111.063042,62.868660 
	C108.276390,62.712013 109.189857,60.568779 109.178543,59.142540 
	C109.104836,49.848877 109.234810,40.552826 109.083260,31.261057 
	C109.040047,28.611307 109.869110,27.752092 112.461922,27.924957 
	C115.602455,28.134342 118.780899,27.823097 121.914200,28.083223 
	C128.747025,28.650478 133.244843,33.598949 132.859436,39.844036 
	C132.489624,45.836407 127.685844,50.073715 121.107452,50.210213 
	C113.342903,50.371319 113.342903,50.371319 113.342484,58.603935 
z"/>
<path fill="#202020" opacity="1.000000" stroke="none" 
	d="
M248.175934,59.049767 
	C251.355148,59.291042 253.875671,58.464287 256.134460,56.991695 
	C257.622803,56.021378 258.472351,56.489780 259.413727,57.694786 
	C260.855286,59.540100 259.102417,60.001537 258.127197,60.637615 
	C251.284531,65.100647 241.692337,63.703060 235.884613,57.455948 
	C230.016678,51.144062 229.533188,41.347198 234.755264,34.571659 
	C240.012207,27.750874 249.999863,25.391031 257.128418,29.419479 
	C258.241089,30.048281 260.438629,30.454582 259.601257,32.463207 
	C258.802551,34.379078 257.340668,34.113808 255.514282,33.225464 
	C250.106873,30.595331 244.897018,31.124413 240.228836,35.100163 
	C235.823364,38.852146 234.694611,43.756104 236.081375,49.097309 
	C237.607147,54.973866 241.620667,58.361687 248.175934,59.049767 
z"/>
<path fill="#222222" opacity="1.000000" stroke="none" 
	d="
M370.421692,50.025841 
	C375.054138,58.959225 380.964569,61.101326 389.875275,57.216782 
	C391.389404,56.556717 392.500824,55.962223 393.601013,57.711433 
	C395.011414,59.953857 392.878479,60.256504 391.799408,60.881386 
	C384.393402,65.170059 375.345001,63.572266 369.662598,57.072193 
	C364.325928,50.967667 363.904633,41.460987 368.680389,34.909248 
	C373.660461,28.077229 382.985046,25.511568 390.457092,29.055552 
	C391.914154,29.746614 394.544098,30.145899 393.666565,32.545101 
	C392.748810,35.054207 390.830688,33.706192 389.146149,32.938202 
	C378.976471,28.301828 367.025177,36.631557 370.421692,50.025841 
z"/>
<path fill="#202020" opacity="1.000000" stroke="none" 
	d="
M309.130920,35.202042 
	C305.360840,43.726448 301.723236,51.892765 298.067627,60.051033 
	C297.478516,61.365803 297.175476,62.874809 295.145477,62.907166 
	C293.068451,62.940273 292.755157,61.334713 292.188385,60.065781 
	C287.530121,49.636318 282.937042,39.177757 278.273865,28.614038 
	C281.179810,27.143797 282.627350,28.184258 283.785156,30.947613 
	C287.343262,39.439678 291.110992,47.843918 295.155365,57.102192 
	C299.300262,47.699852 303.137726,39.322296 306.661682,30.814890 
	C307.819641,28.019415 309.310883,27.364073 312.120270,28.458548 
	C311.145081,30.632738 310.201263,32.737007 309.130920,35.202042 
z"/>
<path fill="#181818" opacity="1.000000" stroke="none" 
	d="
M41.632095,27.580471 
	C47.977890,29.896599 50.260036,33.206207 48.686672,37.427895 
	C47.242355,41.303333 42.304962,43.522240 38.877399,41.013668 
	C33.885006,37.359829 29.424324,36.526928 23.818968,42.569088 
	C24.764826,38.420746 25.307117,36.042355 25.897587,33.276985 
	C29.161846,32.085655 30.690924,28.117523 34.758804,28.153584 
	C35.057709,27.957121 34.997616,28.007414 34.962204,28.024178 
	C36.889439,26.572098 39.049129,26.928560 41.632095,27.580471 
z"/>
<path fill="#262626" opacity="1.000000" stroke="none" 
	d="
M204.200958,58.774834 
	C207.836731,58.778957 210.990433,58.781624 214.144119,58.780148 
	C215.648514,58.779442 217.189346,58.536556 217.049728,60.949265 
	C216.935120,62.929665 215.722412,62.895752 214.342514,62.893017 
	C209.529007,62.883484 204.713440,62.806900 199.902802,62.924759 
	C197.564651,62.982040 197.178864,61.809647 197.188904,59.855160 
	C197.238419,50.228352 197.209641,40.601154 197.212891,30.974096 
	C197.213379,29.498056 196.923172,27.969175 199.297348,27.924925 
	C202.112122,27.872463 201.479889,29.817915 201.487442,31.337423 
	C201.526260,39.138470 201.464172,46.940216 201.540543,54.740711 
	C201.556320,56.353081 200.671036,58.696365 204.200958,58.774834 
z"/>
<path fill="#181818" opacity="1.000000" stroke="none" 
	d="
M356.033539,59.660217 
	C356.033569,49.898312 356.019104,40.605984 356.048859,31.313799 
	C356.053711,29.793825 355.396271,27.860727 358.236450,27.951555 
	C360.786255,28.033096 360.090607,29.798201 360.096710,31.106352 
	C360.141541,40.730289 360.138123,50.354603 360.098938,59.978592 
	C360.094086,61.174950 360.580444,62.733410 358.413605,62.873360 
	C356.256226,63.012695 355.906403,61.840427 356.033539,59.660217 
z"/>
<path fill="#131313" opacity="1.000000" stroke="none" 
	d="
M221.946533,53.937714 
	C221.946655,45.982708 221.925339,38.519821 221.966751,31.057281 
	C221.974136,29.724957 221.340759,28.020599 223.877777,27.949528 
	C226.321655,27.881063 226.000397,29.380753 226.000229,30.860149 
	C225.999084,40.478828 226.019028,50.097591 225.977066,59.716087 
	C225.971252,61.046593 226.584488,62.794102 224.075409,62.871780 
	C221.634293,62.947361 221.975845,61.353878 221.953979,59.902534 
	C221.926529,58.078716 221.946838,56.254177 221.946533,53.937714 
z"/>
<path fill="#DCDCDC" opacity="1.000000" stroke="none" 
	d="
M64.914864,15.166430 
	C62.638176,14.681233 60.601002,14.275867 58.265152,13.698825 
	C57.611141,11.728424 55.370377,11.816425 54.144588,9.632524 
	C61.393570,11.376550 67.783058,13.310125 73.765549,16.453922 
	C75.232704,17.224913 75.245483,18.473959 73.977829,19.941723 
	C71.310249,18.804941 68.955170,17.482279 66.278038,16.009842 
	C65.697845,15.643620 65.430649,15.439014 64.914864,15.166430 
z"/>
<path fill="#C7C7C7" opacity="1.000000" stroke="none" 
	d="
M38.648033,16.626711 
	C38.025398,21.554104 34.298115,22.100988 30.480309,23.020706 
	C29.822134,23.335842 29.474976,23.512447 28.543137,23.293556 
	C29.237556,18.405836 33.105957,16.719425 37.252594,14.941553 
	C38.516666,14.930324 38.628963,15.609338 38.648033,16.626711 
z"/>
<path fill="#DCDCDC" opacity="1.000000" stroke="none" 
	d="
M82.483253,28.953222 
	C82.144371,28.964231 81.851059,28.956841 81.716522,28.898333 
	C81.278595,28.740561 80.975189,28.641298 81.043793,28.240543 
	C79.608002,26.134459 77.800186,24.329865 75.872108,22.247379 
	C76.025948,21.008770 76.298164,19.790499 77.418732,19.765522 
	C79.440720,19.720459 83.368553,26.569788 82.483253,28.953222 
z"/>
<path fill="#D3D3D3" opacity="1.000000" stroke="none" 
	d="
M85.273872,48.292648 
	C85.059776,45.646698 85.009018,43.269932 84.985420,40.448326 
	C85.927979,39.480309 86.684189,39.858902 87.655548,40.639839 
	C89.334297,43.294422 89.129929,45.774418 88.027451,48.658714 
	C87.674095,49.354805 87.306374,49.529861 86.569153,49.531082 
	C85.883713,49.260921 85.604553,48.961666 85.273872,48.292648 
z"/>
<path fill="#C7C7C7" opacity="1.000000" stroke="none" 
	d="
M29.121758,24.833893 
	C29.320747,27.119518 27.603535,28.156214 26.596655,29.867838 
	C25.423773,30.402933 24.523346,30.766220 23.596085,31.140331 
	C23.677231,27.940697 25.064623,25.339447 27.675625,23.080402 
	C28.022978,23.019163 27.997154,22.996538 27.985023,22.984631 
	C28.436045,23.417040 28.828888,23.909813 29.121758,24.833893 
z"/>
<path fill="#BABABA" opacity="1.000000" stroke="none" 
	d="
M80.931824,61.585106 
	C81.632645,59.190990 82.448097,57.182579 83.517029,54.949917 
	C83.971962,54.770802 84.173409,54.815929 84.710739,55.365982 
	C85.676659,58.119698 84.485268,59.997395 83.654884,61.876556 
	C83.068962,63.202484 81.968750,63.271332 80.931824,61.585106 
z"/>
<path fill="#D3D3D3" opacity="1.000000" stroke="none" 
	d="
M84.484512,38.089329 
	C83.379959,35.463860 82.640945,33.097340 81.979340,30.358032 
	C83.680122,30.666468 86.033775,30.407959 86.073410,33.472713 
	C85.750595,34.026119 85.624718,34.305447 85.880577,34.813080 
	C86.075218,34.957146 86.009369,35.005234 86.034073,34.973026 
	C86.592690,36.408958 87.145317,37.883732 84.484512,38.089329 
z"/>
<path fill="#4A4A4A" opacity="1.000000" stroke="none" 
	d="
M38.956413,17.025024 
	C38.376244,16.416355 38.189850,15.874134 37.799492,15.126686 
	C39.666172,12.781672 42.420677,12.226941 45.605995,11.743179 
	C46.038536,12.922378 45.311375,13.614662 44.406776,14.618619 
	C43.484665,16.105347 41.622952,14.933317 41.014858,16.742310 
	C40.412701,17.073086 39.881443,17.082279 38.956413,17.025024 
z"/>
<path fill="#E9E9E9" opacity="1.000000" stroke="none" 
	d="
M44.469906,14.810460 
	C43.642269,13.508932 44.809471,13.106323 45.806534,12.149035 
	C46.921211,11.868613 47.576626,11.533508 48.186493,10.865109 
	C49.218880,9.733637 50.832237,9.378179 51.483402,10.758725 
	C52.158821,12.190702 49.775219,11.827574 49.175575,13.193493 
	C47.616684,13.921926 46.199383,14.326049 44.469906,14.810460 
z"/>
<path fill="#D3D3D3" opacity="1.000000" stroke="none" 
	d="
M34.711388,27.878283 
	C32.523006,30.058338 29.617222,31.427744 26.206009,32.601822 
	C25.945761,32.890003 25.834772,32.462891 25.905125,32.253761 
	C27.384407,33.024765 27.691645,31.994600 28.492584,31.021372 
	C29.949682,29.250843 31.052002,26.350569 34.711388,27.878283 
z"/>
<path fill="#D3D3D3" opacity="1.000000" stroke="none" 
	d="
M42.066856,27.544556 
	C39.970997,27.896133 37.894917,27.993240 35.372810,28.065643 
	C36.215347,24.807163 39.019951,26.318987 41.653282,26.147259 
	C42.068794,26.611732 42.077713,26.950907 42.066856,27.544556 
z"/>
<path fill="#4A4A4A" opacity="1.000000" stroke="none" 
	d="
M84.060776,38.151005 
	C86.235916,38.150723 85.627785,36.634617 85.857910,35.244438 
	C87.761185,36.272533 87.319778,38.396183 87.937309,40.484917 
	C87.147408,40.575989 86.390823,40.298492 85.323410,40.012245 
	C84.675903,39.492870 84.339241,38.982246 84.060776,38.151005 
z"/>
<path fill="#5B5B5B" opacity="1.000000" stroke="none" 
	d="
M85.960548,49.594433 
	C86.671356,49.242138 87.033203,49.097034 87.684334,48.997391 
	C87.672554,51.468807 87.827751,54.040730 85.412117,55.889015 
	C85.046631,55.870907 85.016724,55.957928 85.058670,55.976837 
	C84.012161,53.827194 85.451126,51.867146 85.960548,49.594433 
z"/>
<path fill="#4A4A4A" opacity="1.000000" stroke="none" 
	d="
M86.217567,34.674114 
	C84.896225,35.320522 85.232864,34.639942 85.754974,33.937603 
	C86.162346,34.017715 86.261131,34.204399 86.217567,34.674114 
z"/>
<path fill="#E9E9E9" opacity="1.000000" stroke="none" 
	d="
M86.159119,49.115620 
	C85.933487,51.340279 85.557472,53.293316 85.141037,55.621048 
	C84.759407,55.761478 84.418198,55.527210 83.923752,55.009308 
	C84.168282,52.741295 84.566048,50.756916 85.037170,48.398003 
	C85.409935,48.296974 85.709335,48.570484 86.159119,49.115620 
z"/>
<path fill="#181818" opacity="1.000000" stroke="none" 
	d="
M51.928001,17.348774 
	C53.334393,17.123140 54.032047,17.605934 53.749599,18.845201 
	C53.682755,19.138493 52.968166,19.582539 52.751263,19.489851 
	C51.954762,19.149490 51.695160,18.378218 51.928001,17.348774 
z"/>
<path fill="#FDFDFD" opacity="1.000000" stroke="none" 
	d="
M29.473816,24.989204 
	C28.444790,24.938530 28.078974,24.408403 27.968906,23.320044 
	C28.444723,22.971954 28.916552,22.971188 29.741379,22.994522 
	C29.978666,23.624514 29.862953,24.230404 29.473816,24.989204 
z"/>
<path fill="#FDFDFD" opacity="1.000000" stroke="none" 
	d="
M61.431107,23.351566 
	C60.703773,23.302641 60.289421,23.037825 59.778999,22.546051 
	C59.772728,22.106264 59.862526,21.893438 60.208172,21.446957 
	C60.980400,21.521143 61.496773,21.828985 62.172604,22.395138 
	C62.136066,22.814190 61.940075,22.974934 61.431107,23.351566 
z"/>
<path fill="#FDFDFD" opacity="1.000000" stroke="none" 
	d="
M58.817589,21.470352 
	C58.041676,21.261156 57.589741,20.840460 57.137810,20.419762 
	C57.743027,20.328779 58.348248,20.237795 59.207718,20.350653 
	C59.355171,20.789278 59.248367,21.024065 58.817589,21.470352 
z"/>
<path fill="#181818" opacity="1.000000" stroke="none" 
	d="
M55.398296,19.721542 
	C55.559471,19.848925 55.582882,20.069178 55.606285,20.289431 
	C55.491032,20.131090 55.375782,19.972750 55.398296,19.721542 
z"/>
<path fill="#181818" opacity="1.000000" stroke="none" 
	d="
M81.185364,28.028847 
	C81.415810,27.939053 81.676292,28.356743 81.629143,28.598284 
	C81.224388,28.728622 80.419304,29.006504 81.185364,28.028847 
z"/>
<path fill="#FDFDFD" opacity="1.000000" stroke="none" 
	d="
M59.893265,22.053280 
	C59.361431,22.311638 59.076153,22.206181 58.660355,21.842285 
	C58.648792,21.488668 58.803982,21.295485 59.210571,20.828396 
	C59.742016,20.595802 59.984615,20.713976 60.326897,21.061157 
	C60.343880,21.404690 60.223740,21.596081 59.893265,22.053280 
z"/>
<path fill="#4A4A4A" opacity="1.000000" stroke="none" 
	d="
M41.019928,16.985140 
	C41.244541,17.105307 41.442413,17.250320 41.640285,17.395336 
	C41.445953,17.407484 41.251625,17.419632 41.000626,17.247837 
	C40.943958,17.063894 40.993191,17.009987 41.019928,16.985140 
z"/>
<path fill="#FDFDFD" opacity="1.000000" stroke="none" 
	d="
M64.813293,15.329353 
	C65.005005,15.199130 65.334648,15.311661 65.810135,15.642129 
	C65.621063,15.764080 65.286156,15.668094 64.813293,15.329353 
z"/>
<path fill="#FDFDFD" opacity="1.000000" stroke="none" 
	d="
M187.790375,49.691154 
	C188.750809,56.099300 186.809372,58.782578 181.150635,58.886024 
	C178.413071,58.936062 174.138336,60.249752 173.233536,58.168442 
	C171.896622,55.093098 172.816086,51.032696 172.796280,47.391636 
	C172.790817,46.385281 173.405853,45.881111 174.352997,45.944294 
	C178.984238,46.253227 184.152191,44.476238 187.790375,49.691154 
z"/>
<path fill="#FCFCFC" opacity="1.000000" stroke="none" 
	d="
M173.221313,32.315586 
	C175.900650,31.964653 178.224503,31.907381 180.548172,31.913986 
	C183.846527,31.923363 186.014175,33.372440 186.117157,36.867165 
	C186.220764,40.383301 184.126434,41.937897 180.819427,42.080112 
	C179.161697,42.151402 177.487152,41.974930 175.840591,42.128658 
	C173.512863,42.345970 172.483078,41.567413 172.713013,39.105568 
	C172.913055,36.963562 172.825958,34.794739 173.221313,32.315586 
z"/>
<path fill="#FCFCFC" opacity="1.000000" stroke="none" 
	d="
M343.409363,54.277924 
	C337.755035,59.667374 330.908875,60.567829 325.592804,56.872356 
	C320.530151,53.353050 318.463501,45.896847 320.911011,39.980991 
	C323.345245,34.097038 329.588745,30.682064 335.825684,31.964706 
	C344.520264,33.752762 350.377319,44.825668 343.409363,54.277924 
z"/>
<path fill="#F5F5F5" opacity="1.000000" stroke="none" 
	d="
M113.316620,43.748669 
	C113.312355,41.624516 112.994377,39.891155 113.388573,38.338619 
	C113.932854,36.194958 111.294136,32.733006 115.585930,32.047417 
	C122.379730,30.962149 126.852844,32.779053 128.235641,36.956482 
	C129.620972,41.141548 127.547211,45.589523 123.233429,45.982586 
	C119.992920,46.277855 115.832802,48.952793 113.316620,43.748669 
z"/>
</svg>